<svg xmlns="http://www.w3.org/2000/svg" xmlns:xlink="http://www.w3.org/1999/xlink" viewBox="0 0 500 500"><defs><clipPath id="freepik--clip-path--inject-31"><path d="M194.46,368.78s27.57,24.33,56.6,42.8c27.37,17.42,41.27,19,45.13,19.75s44.91-55.47,51.73-83,4.52-75.4,4.52-75.4-23.67,3.42-28.86,10.95-25,78.45-38.52,101.84c0,0-22.17-8.5-38.81-12.34s-40.72-21.91-40.72-21.91" style="fill:#fff;stroke:#263238;stroke-linecap:round;stroke-linejoin:round"></path></clipPath><clipPath id="freepik--clip-path-2--inject-31"><path d="M201.73,370.62s-2.74,5.44-13-.75c-4.83-2.92-19.85-17-20.9-20.74-1.94-6.89-3.83-12.32-2.88-15,2.2-6.27,13.79-17.44,15.81-18.87.71-.51,2.64,2.67,5.52,7,3.76,5.66,9.16,13.29,15.56,17.09a15.29,15.29,0,0,0,7.82,2.37" style="fill:#fff;stroke:#263238;stroke-linecap:round;stroke-linejoin:round"></path></clipPath><clipPath id="freepik--clip-path-3--inject-31"><path d="M208,329l-9.49,3.9s-17.47,25.64-19.8,23.73-19.94-45.22-19.94-45.22l-.29-25c7.69-3.19,34.89,6.16,38.32,7.37l.36.13Z" style="fill:#92E3A9;stroke:#263238;stroke-linecap:round;stroke-linejoin:round"></path></clipPath><clipPath id="freepik--clip-path-4--inject-31"><polygon points="229.45 305.91 229.45 276.68 220.63 253.35 216.4 238.52 202.47 212.63 171.98 223.8 155.03 221.77 180.35 241.09 192.31 243.54 203.7 264.34 213.23 278.94 202.47 304.65 200.33 318.85 208.78 327.07 229.06 334.85 229.45 305.91" style="fill:#fff;stroke:#263238;stroke-linecap:round;stroke-linejoin:round"></polygon></clipPath><clipPath id="freepik--clip-path-5--inject-31"><path d="M238.48,293.38c1.19,15.43,30.47,41.54,47.08,60.94s24.53,28.23,24.53,28.23S339,344.43,351.72,304c6.79-21.64,19.69-34.79,38.68-31.44,0,0,19.9,9.4,12.52,43.18-3.19,14.6-13.48,17.89-27.16,40.59-27.69,46-53.41,80.22-57.69,77.05-4.63-3.41-19.45-4.74-38.44-25.62s-56.72-97.11-56.72-97.11" style="fill:#fff;stroke:#263238;stroke-linecap:round;stroke-linejoin:round"></path></clipPath></defs><g id="freepik--background-simple--inject-31"><path d="M42.71,299.94a108.7,108.7,0,0,1,5.79-64.5c11.55-28.56,36.37-48.85,64.17-60.69,40.41-17.21,80.08-17.53,112.92-51.25,10.13-10.4,18.63-22.31,29-32.49,30.52-30,75.19-26.4,108.55-2.58,69.58,49.69,94.61,148.11,90.74,229.47-1.73,36.51-19.17,70.49-46.76,94.45-62.4,54.18-168.35,45.06-240,16.78C113.63,408,55.26,358.84,42.71,299.94Z" style="fill:#92E3A9"></path><path d="M42.71,299.94a108.7,108.7,0,0,1,5.79-64.5c11.55-28.56,36.37-48.85,64.17-60.69,40.41-17.21,80.08-17.53,112.92-51.25,10.13-10.4,18.63-22.31,29-32.49,30.52-30,75.19-26.4,108.55-2.58,69.58,49.69,94.61,148.11,90.74,229.47-1.73,36.51-19.17,70.49-46.76,94.45-62.4,54.18-168.35,45.06-240,16.78C113.63,408,55.26,358.84,42.71,299.94Z" style="fill:#fff;opacity:0.7000000000000001"></path></g><g id="freepik--Window--inject-31"><polyline points="226.64 86.9 226.64 67.16 424.24 67.16 424.24 264.76 243.79 264.76" style="fill:none;stroke:#263238;stroke-linecap:round;stroke-linejoin:round"></polyline><line x1="226.64" y1="264.76" x2="226.64" y2="96.92" style="fill:none;stroke:#263238;stroke-linecap:round;stroke-linejoin:round"></line><polyline points="236.08 139.28 236.08 76.73 322.55 76.73 322.55 163.2 236.08 163.2 236.08 144.45" style="fill:none;stroke:#263238;stroke-linecap:round;stroke-linejoin:round"></polyline><polyline points="414.8 131.91 414.8 163.2 328.33 163.2 328.33 76.73 414.8 76.73 414.8 122.77" style="fill:none;stroke:#263238;stroke-linecap:round;stroke-linejoin:round"></polyline><polyline points="322.55 168.72 322.55 255.19 236.08 255.19 236.08 168.72 316.17 168.72" style="fill:none;stroke:#263238;stroke-linecap:round;stroke-linejoin:round"></polyline><polyline points="351.79 255.19 328.33 255.19 328.33 168.72 414.8 168.72 414.8 255.19 364.13 255.19" style="fill:none;stroke:#263238;stroke-linecap:round;stroke-linejoin:round"></polyline></g><g id="freepik--Lamp--inject-31"><line x1="86.45" y1="94.89" x2="86.45" y2="101.4" style="fill:none;stroke:#263238;stroke-linecap:round;stroke-linejoin:round"></line><line x1="86.78" y1="62.83" x2="86.45" y2="91.07" style="fill:none;stroke:#263238;stroke-linecap:round;stroke-linejoin:round"></line><line x1="86.45" y1="37.16" x2="86.75" y2="58.46" style="fill:none;stroke:#263238;stroke-linecap:round;stroke-linejoin:round"></line><path d="M109.48,138.77h7.26c-12.15-45.4-48.43-45.4-60.58,0H88.43" style="fill:none;stroke:#263238;stroke-linecap:round;stroke-linejoin:round"></path><line x1="98.62" y1="138.77" x2="103.32" y2="138.77" style="fill:none;stroke:#263238;stroke-linecap:round;stroke-linejoin:round"></line><line x1="86.45" y1="147.16" x2="86.45" y2="159.33" style="fill:none;stroke:#263238;stroke-linecap:round;stroke-linejoin:round"></line><line x1="100.97" y1="147.16" x2="104.85" y2="155.71" style="fill:none;stroke:#263238;stroke-linecap:round;stroke-linejoin:round"></line><line x1="71.65" y1="147.16" x2="67.7" y2="155.71" style="fill:none;stroke:#263238;stroke-linecap:round;stroke-linejoin:round"></line></g><g id="freepik--Plant--inject-31"><path d="M148,349.34s-21.44,1.69-22.33,17.5C125.64,366.84,147.34,376.83,148,349.34Z" style="fill:none;stroke:#263238;stroke-linecap:round;stroke-linejoin:round"></path><path d="M105.57,353.26s-12-16.18-31.32-7.88C74.25,345.38,86.06,365,105.57,353.26Z" style="fill:none;stroke:#263238;stroke-linecap:round;stroke-linejoin:round"></path><path d="M75.89,302.16s-3.44,31.14,24.9,22.56C100.79,324.72,91.79,301.83,75.89,302.16Z" style="fill:none;stroke:#263238;stroke-linecap:round;stroke-linejoin:round"></path><path d="M110.69,284.82s-22.41,12.09-5.93,30.44C104.76,315.26,120.48,302.15,110.69,284.82Z" style="fill:none;stroke:#263238;stroke-linecap:round;stroke-linejoin:round"></path><path d="M138.28,312.65s-24.38-2.46-24.38,20.1C113.9,332.75,138.28,333.71,138.28,312.65Z" style="fill:none;stroke:#263238;stroke-linecap:round;stroke-linejoin:round"></path><path d="M120,379.58c.36-7.57.35-17.31-4.27-27.6-10.67-23.76-14.27-43.76-8.7-57.86" style="fill:none;stroke:#263238;stroke-linecap:round;stroke-linejoin:round"></path><path d="M130.27,318.72s-14.61,5.8-19.58,20.85" style="fill:none;stroke:#263238;stroke-linecap:round;stroke-linejoin:round"></path><path d="M83.6,314.62s8.44,11.5,22.74,10.26" style="fill:none;stroke:#263238;stroke-linecap:round;stroke-linejoin:round"></path><path d="M83.6,348.69s23.38,6.73,32.67,4.53" style="fill:none;stroke:#263238;stroke-linecap:round;stroke-linejoin:round"></path><path d="M141,356.46s-10.46,11.47-21,11.29" style="fill:none;stroke:#263238;stroke-linecap:round;stroke-linejoin:round"></path><path d="M93.69,385.91H92.21A1.25,1.25,0,0,1,91,384.67v-3.85a1.24,1.24,0,0,1,1.24-1.24H143a1.23,1.23,0,0,1,1.23,1.24v3.85a1.24,1.24,0,0,1-1.23,1.24h-1.49l-3.24,31.86" style="fill:none;stroke:#263238;stroke-miterlimit:10"></path><line x1="138.28" y1="385.91" x2="108.72" y2="385.91" style="fill:none;stroke:#263238;stroke-linecap:round;stroke-linejoin:round"></line><line x1="103.15" y1="385.91" x2="98.71" y2="385.91" style="fill:none;stroke:#263238;stroke-linecap:round;stroke-linejoin:round"></line></g><g id="freepik--speech-bubble--inject-31"><path d="M125.33,159.69a41,41,0,1,1,44.38,40.83L166.32,214l-3.4-13.45A41,41,0,0,1,125.33,159.69Z" style="fill:#fff;stroke:#263238;stroke-linecap:round;stroke-linejoin:round"></path><path d="M166.32,192.52C140.8,182.19,139,146.65,139,146.65h5.46v-4.24a35.58,35.58,0,0,0,21.91-8h0a35.54,35.54,0,0,0,21.9,8v4.24h5.46s-1.85,35.54-27.36,45.87Z" style="fill:#92E3A9;stroke:#263238;stroke-linecap:round;stroke-linejoin:round"></path><path d="M166.31,190.35c19.89-8.64,24.3-34.17,25.17-41.7h-5.26v-4.3a37.88,37.88,0,0,1-19.91-7.41,37.8,37.8,0,0,1-19.9,7.41v4.3h-5.26C142,156.18,146.43,181.71,166.31,190.35Z" style="fill:#263238"></path><line x1="166.32" y1="175.16" x2="166.32" y2="151.61" style="fill:#92E3A9;stroke:#fff;stroke-linecap:round;stroke-linejoin:round"></line><path d="M154.48,151.78s.14,1.27,2.87,1.27,4-3.88,9.06-3.88h-.19c5.06,0,6.33,3.88,9.06,3.88s2.87-1.27,2.87-1.27" style="fill:none;stroke:#fff;stroke-linecap:round;stroke-linejoin:round"></path><line x1="168.34" y1="177.05" x2="164.29" y2="177.05" style="fill:none;stroke:#fff;stroke-linecap:round;stroke-linejoin:round"></line><line x1="170.74" y1="178.67" x2="161.89" y2="178.67" style="fill:none;stroke:#fff;stroke-linecap:round;stroke-linejoin:round"></line><path d="M179.34,168.78h-7.78a.46.46,0,0,0-.37.73,5.06,5.06,0,0,0,8.53,0A.46.46,0,0,0,179.34,168.78Z" style="fill:#fff"></path><line x1="175.45" y1="167.33" x2="175.45" y2="155.11" style="fill:none;stroke:#fff;stroke-linecap:round;stroke-linejoin:round"></line><polyline points="179.05 167.33 175.45 157.21 171.82 167.33" style="fill:none;stroke:#fff;stroke-linecap:round;stroke-linejoin:round"></polyline><path d="M161.07,168.78h-7.78a.46.46,0,0,0-.38.73,5.06,5.06,0,0,0,8.53,0A.46.46,0,0,0,161.07,168.78Z" style="fill:#fff"></path><line x1="157.18" y1="167.33" x2="157.18" y2="155.11" style="fill:none;stroke:#fff;stroke-linecap:round;stroke-linejoin:round"></line><polyline points="160.77 167.33 157.18 157.21 153.54 167.33" style="fill:none;stroke:#fff;stroke-linecap:round;stroke-linejoin:round"></polyline><path d="M164.92,146a1.4,1.4,0,1,0,1.4-1.4A1.4,1.4,0,0,0,164.92,146Z" style="fill:none;stroke:#fff;stroke-linecap:round;stroke-linejoin:round"></path><rect x="122.9" y="178.52" width="23.66" height="23.66" rx="7.29" transform="translate(269.46 380.69) rotate(180)" style="fill:#92E3A9;stroke:#263238;stroke-linecap:round;stroke-linejoin:round"></rect><path d="M140.65,194.35h0a3.36,3.36,0,0,1-1.14-2.59l.05-2.8a4.72,4.72,0,0,0-4-4.74,1.28,1.28,0,0,0-.61-2.39,1.28,1.28,0,0,0-1.3,1.26,1.25,1.25,0,0,0,.61,1.11,4.72,4.72,0,0,0-4.16,4.59l-.05,2.77a3.36,3.36,0,0,1-.95,2.3l-.27.28a1.07,1.07,0,0,0-1.08,1.15,1.09,1.09,0,0,0,1.09,1l4.2.08a1.09,1.09,0,0,0,0,.26,1.68,1.68,0,0,0,3.35.06,2.45,2.45,0,0,0,0-.27l4.2.08a1.1,1.1,0,0,0,1.12-.94A1.07,1.07,0,0,0,140.65,194.35Zm-5.69-12a.75.75,0,0,1,.73.77.75.75,0,0,1-1.49,0A.76.76,0,0,1,135,182.36Z" style="fill:#fff;stroke:#263238;stroke-linecap:round;stroke-linejoin:round"></path><line x1="133.78" y1="196.21" x2="135.64" y2="196.24" style="fill:#92E3A9;stroke:#263238;stroke-linecap:round;stroke-linejoin:round"></line><line x1="130.5" y1="194.14" x2="139" y2="194.29" style="fill:#92E3A9;stroke:#263238;stroke-linecap:round;stroke-linejoin:round"></line></g><g id="freepik--Character--inject-31"><path d="M194.46,368.78s27.57,24.33,56.6,42.8c27.37,17.42,41.27,19,45.13,19.75s44.91-55.47,51.73-83,4.52-75.4,4.52-75.4-23.67,3.42-28.86,10.95-25,78.45-38.52,101.84c0,0-22.17-8.5-38.81-12.34s-40.72-21.91-40.72-21.91" style="fill:#fff"></path><g style="clip-path:url(#freepik--clip-path--inject-31)"><path d="M370.42,283.78,351.05,329.6l-29.66,70.16c-11.76,17.71-23.25,31.93-25.2,31.56-3.86-.71-17.76-2.32-45.13-19.74-29-18.47-56.6-42.8-56.6-42.8l1.77-2.63c17.59,16,71.8,42.46,71.8,42.46-1.27-13.38-12.49-25.49-12.49-25.49-14.52-5.65-47.3-22.74-47.3-22.74.65-1.08,1-3.56,1.13-6.12,7.45,5.2,24.29,16.25,36.88,19.16,16.64,3.84,38.81,12.34,38.81,12.34,12.9-22.38,31.61-88.22,37.76-100.5,5.36,4.55,18.76,3.77,30,2.07C362.42,285.89,370.42,283.78,370.42,283.78Z" style="fill:#92E3A9;opacity:0.4"></path></g><path d="M194.46,368.78s27.57,24.33,56.6,42.8c27.37,17.42,41.27,19,45.13,19.75s44.91-55.47,51.73-83,4.52-75.4,4.52-75.4-23.67,3.42-28.86,10.95-25,78.45-38.52,101.84c0,0-22.17-8.5-38.81-12.34s-40.72-21.91-40.72-21.91" style="fill:none;stroke:#263238;stroke-linecap:round;stroke-linejoin:round"></path><path d="M201.73,370.62s-2.74,5.44-13-.75c-4.83-2.92-19.85-17-20.9-20.74-1.94-6.89-3.83-12.32-2.88-15,2.2-6.27,13.79-17.44,15.81-18.87.71-.51,2.64,2.67,5.52,7,3.76,5.66,9.16,13.29,15.56,17.09a15.29,15.29,0,0,0,7.82,2.37" style="fill:#fff"></path><g style="clip-path:url(#freepik--clip-path-2--inject-31)"><path d="M201.85,339.32c-3.22,3.13-4.48,11.84-4.89,12.83-2.29,5.57-14.19,8.61-17.63,6.27s-8-9.82-8-9.82l-3.22-8.81c2.77-.46,4.35-4,4.35-4l13.81-13.61C190.05,327.89,195.45,335.52,201.85,339.32Z" style="fill:#92E3A9;opacity:0.4"></path></g><path d="M201.73,370.62s-2.74,5.44-13-.75c-4.83-2.92-19.85-17-20.9-20.74-1.94-6.89-3.83-12.32-2.88-15,2.2-6.27,13.79-17.44,15.81-18.87.71-.51,2.64,2.67,5.52,7,3.76,5.66,9.16,13.29,15.56,17.09a15.29,15.29,0,0,0,7.82,2.37" style="fill:none;stroke:#263238;stroke-linecap:round;stroke-linejoin:round"></path><path d="M170.21,349.1s4.56-1.24,7.67-8.42" style="fill:none;stroke:#263238;stroke-linecap:round;stroke-linejoin:round"></path><path d="M200.52,353.14s-10.23,1.68-13.23,10" style="fill:none;stroke:#263238;stroke-linecap:round;stroke-linejoin:round"></path><path d="M167.54,338.21s3.16,2.38,4.94-2.37" style="fill:none;stroke:#263238;stroke-linecap:round;stroke-linejoin:round"></path><path d="M208,329l-9.49,3.9s-17.47,25.64-19.8,23.73-19.94-45.22-19.94-45.22l-.29-25c7.69-3.19,34.89,6.16,38.32,7.37l.36.13Z" style="fill:#92E3A9"></path><g style="clip-path:url(#freepik--clip-path-3--inject-31)"><path d="M196.81,293.72,175.29,299a43.28,43.28,0,0,0-14.85-11.57l-.9,22.69-.76,1.26-.29-25C166.18,283.16,193.38,292.51,196.81,293.72Z" style="fill:#fff;opacity:0.2"></path><path d="M162.74,311.33l25.13,9.34-3.25,16.74,4.51-15.26s1.46-3.24,3.32-3.94,9.38,5.35,9.38,5.35L195.27,314l.75-16.32-19.25,2.17s6.68,14.05,8.4,15.63Z" style="opacity:0.2"></path><path d="M205.42,330c-1-.19-9.49-6.16-11.52-6.49s-9.1,27.86-9.1,27.86l13.72-18.53Z" style="opacity:0.2"></path></g><path d="M208,329l-9.49,3.9s-17.47,25.64-19.8,23.73-19.94-45.22-19.94-45.22l-.29-25c7.69-3.19,34.89,6.16,38.32,7.37l.36.13Z" style="fill:none;stroke:#263238;stroke-linecap:round;stroke-linejoin:round"></path><polyline points="161.49 309.57 175.28 299 197.17 293.85" style="fill:none;stroke:#263238;stroke-linecap:round;stroke-linejoin:round"></polyline><line x1="195.21" y1="318.36" x2="196.04" y2="296.91" style="fill:none;stroke:#263238;stroke-linecap:round;stroke-linejoin:round"></line><line x1="161.62" y1="310.92" x2="189.42" y2="321.18" style="fill:none;stroke:#263238;stroke-linecap:round;stroke-linejoin:round"></line><path d="M181.64,347.48l7.78-26.3a4.37,4.37,0,0,1,7-2.12l8.35,6.93" style="fill:none;stroke:#263238;stroke-linecap:round;stroke-linejoin:round"></path><path d="M210.38,359.2c3-5.05,2.58-12.91.31-20.75-1.07-3.69-8.7-11.4-8.7-11.4s-6.55-2.92-8.16-4.57c0,0-3.62,5.69,5,9l2.85,6.61s-1.84,6.26-.87,11.09" style="fill:#fff;stroke:#263238;stroke-linecap:round;stroke-linejoin:round"></path><path d="M410.89,313.63a42.46,42.46,0,0,1-.82,5.92,408.45,408.45,0,0,1-13.22,45.81c-9,26.48-17,47-13,63.3-25.79,14.5-56.09,21.41-87.23,22.8l-.21-9.81L295,376.52s-5-17-6.27-33.34c-.83-10.79,0-21.29,5-26.44,3.72-3.86,17.34-13.54,28.13-21,7.83-5.41,14.17-9.65,14.17-9.65h0c.13-.42,3.58-10.64,7.51-13.75,1-.75,6-.82,8.14-.82h.95c.8-11.71,38.53-26.92,47.7-22.68v5.5S412.63,290.36,410.89,313.63Z" style="fill:#92E3A9"></path><path d="M410.89,313.63a42.46,42.46,0,0,1-.82,5.92,408.45,408.45,0,0,1-13.22,45.81L384.6,361.6s-37.81,92.58-88.2,80L295,376.52s-5-17-6.27-33.34c2.56.41,6.64,2,13.05,6.61,14.24,10.18,26,11.81,26,11.81l17.06-13.09a18,18,0,0,0,2.29-4.58c1.56-5.52-2.08-11-3.82-16.44-3.12-9.83.27-21.07,7.34-28.59q.38,5.88,1.32,11.71c.75,4.58,1.79,9.21,4.18,13.18,7.25,12.08,20.14,5.54,30.57,1.86C393.54,323.24,404.69,319.77,410.89,313.63Z" style="opacity:0.2"></path><path d="M367.14,276.68c-4.4,5-26.28,7-41.7,17.17a19.37,19.37,0,0,1-3.59,1.9c7.83-5.41,14.17-9.65,14.17-9.65h0c.13-.42,3.58-10.64,7.51-13.75,1-.75,6-.82,8.14-.82a5.87,5.87,0,0,0,3.83,3.86C362,277.68,371.54,271.71,367.14,276.68Z" style="opacity:0.2"></path><path d="M296.61,451.46,295,376.52s-13.82-46.82-1.31-59.78c6.42-6.66,42.3-30.64,42.3-30.64h0c.13-.42,3.58-10.64,7.51-13.75,1.22-1,9.09-.81,9.09-.81.8-11.71,38.53-26.92,47.7-22.68v5.5s14.6,42.76,9.74,65.2c-10.85,50.06-32.24,84.42-26.23,109.11" style="fill:none;stroke:#263238;stroke-linecap:round;stroke-linejoin:round"></path><path d="M299.54,435.52c.17,2.22.36,4.44.61,6.65" style="fill:none;stroke:#263238;stroke-linecap:round;stroke-linejoin:round"></path><path d="M360.52,267.6c-1.09.55-3.09,1.55-3.09,2.55a23.84,23.84,0,0,1-6,11c-13,12-27,20-42,29-5,7-13,14-14,23-1,10,0,21,1,31,2,21,1,43,2.66,64.36" style="fill:none;stroke:#263238;stroke-linecap:round;stroke-linejoin:round"></path><path d="M352.63,271.53a9.57,9.57,0,0,0,.67,5.15" style="fill:none;stroke:#263238;stroke-linecap:round;stroke-linejoin:round"></path><path d="M336,286.1a26.57,26.57,0,0,0,5.54-4.55c2-2.37.92-3.56.92-3.56" style="fill:none;stroke:#263238;stroke-linecap:round;stroke-linejoin:round"></path><path d="M349,303.93c-2.59,8.22-.59,17.22,4.41,24.22,7,9,19,17,30,12a48.75,48.75,0,0,1,7-3c7-3,12-9,15.09-16.43" style="fill:none;stroke:#263238;stroke-linecap:round;stroke-linejoin:round"></path><path d="M352.91,290.65a51.33,51.33,0,0,0-2,5.47" style="fill:none;stroke:#263238;stroke-linecap:round;stroke-linejoin:round"></path><path d="M386.37,268.24c9.33.05,14.81,9.41,18.19,17" style="fill:none;stroke:#263238;stroke-linecap:round;stroke-linejoin:round"></path><path d="M373.69,271a39.14,39.14,0,0,1,5.58-1.83" style="fill:none;stroke:#263238;stroke-linecap:round;stroke-linejoin:round"></path><path d="M395.68,252.39s1.79-2.22,1.79-2.88" style="fill:none;stroke:#263238;stroke-linecap:round;stroke-linejoin:round"></path><path d="M400.33,254.35s-3.65,5.71-7.34,7.29" style="fill:none;stroke:#263238;stroke-linecap:round;stroke-linejoin:round"></path><path d="M357.72,427.08a8.9,8.9,0,0,1-4.42.45" style="fill:none;stroke:#263238;stroke-linecap:round;stroke-linejoin:round"></path><path d="M376.94,414.45a87,87,0,0,1-12.33,9.28" style="fill:none;stroke:#263238;stroke-linecap:round;stroke-linejoin:round"></path><path d="M304,361.6c10.53,4.78,21.35,11.08,28.44,20.44" style="fill:none;stroke:#263238;stroke-linecap:round;stroke-linejoin:round"></path><path d="M292.9,357.2c1.17.38,2.33.79,3.49,1.22" style="fill:none;stroke:#263238;stroke-linecap:round;stroke-linejoin:round"></path><path d="M392,346.6c1.23-.05,2.47-.13,3.7-.25" style="fill:none;stroke:#263238;stroke-linecap:round;stroke-linejoin:round"></path><path d="M342.77,316.3c6.66,16.85,22.66,29.85,41.83,30.2" style="fill:none;stroke:#263238;stroke-linecap:round;stroke-linejoin:round"></path><path d="M376.94,423.21s-8.08,13-14.41,14" style="fill:none;stroke:#263238;stroke-linecap:round;stroke-linejoin:round"></path><path d="M317.47,309.65c1.94-.4,19.76-3.48,21.92-7.48" style="fill:none;stroke:#263238;stroke-linecap:round;stroke-linejoin:round"></path><path d="M347.1,125.1s-37.62,3.64-44.31,28.18c-9.76,35.8,5.66,97.69,40.55,111.06,0,0,24.52-37.56,53.12-45.92S374.19,115.19,347.1,125.1Z" style="fill:#263238"></path><path d="M395.68,252.39c-21.63,17-35.16,15.21-35.16,15.21,2.17-15.63-2.85-21.71-6.83-24.06a10.43,10.43,0,0,0-4.24-1.48,50.12,50.12,0,0,1,2.38-6.54c10.22-23.38,40.37-56.26,38.3-43.64C385.84,218.14,395.68,252.39,395.68,252.39Z" style="fill:#fff;stroke:#263238;stroke-linecap:round;stroke-linejoin:round"></path><path d="M367.14,223.8s-5.31,11.88-13.45,19.74a10.43,10.43,0,0,0-4.24-1.48,50.12,50.12,0,0,1,2.38-6.54C359.29,229.44,367.14,223.8,367.14,223.8Z" style="fill:#263238"></path><path d="M371.89,216.38c1.91,9.9-23.68,29.32-31.47,29-6.7-.28-8.5-11.56-8.5-11.56-2.53-.06-3.37-3-3.37-3-1-2.48,5.08-8.88,5.08-8.88-5.54-2.51-13.51-2.05-13.51-2.05.44-6.31-1.76-7.95-1.76-7.95s-8.16-2.91-8.7-5.69c-.61-3.13,5-.14,10.17-13.14,2.24-5.67-12.29-21-4.23-41.16,8.63-21.6,72.64-40.7,86.53-9.25A59.47,59.47,0,0,1,406.61,177" style="fill:#fff;stroke:#263238;stroke-linecap:round;stroke-linejoin:round"></path><path d="M316.92,173.64s2.15,5.68,12.37,3.76" style="fill:none;stroke:#263238;stroke-linecap:round;stroke-linejoin:round"></path><path d="M327.94,184.48c.38,1.93-.14,3.66-1.16,3.86s-2.15-1.21-2.53-3.14.15-3.65,1.17-3.85S327.57,182.55,327.94,184.48Z" style="fill:#263238"></path><path d="M326.91,132.23s-10,7-9.42,18.19,5.91,29.84,41.59,41.44c0,0,3.82-17.53,14.45-12.61s8.07,35.29-2.09,32.8c0,0,13,18,6.23,45.52,0,0,25.58-16.66,50.84-25.6,0,0,8.39-58.45-15.94-94.43-17-25.16-52.11-17.73-71.69-11" style="fill:#263238"></path><g style="opacity:0.30000000000000004"><path d="M361.07,167.83c20.36,7.32,42.36,22.32,43.49,45.68" style="fill:none;stroke:#fff;stroke-linecap:round;stroke-linejoin:round"></path><path d="M328.29,134.39c-4.63,8.85-1.36,18.72,6.79,24.14,5.71,3.79,12.28,5.17,18.77,7" style="fill:none;stroke:#fff;stroke-linecap:round;stroke-linejoin:round"></path><path d="M413.78,164.29a41.7,41.7,0,0,1,11.65,20.55" style="fill:none;stroke:#fff;stroke-linecap:round;stroke-linejoin:round"></path><path d="M351.43,137.55c19.61,4.71,40,8.77,56.28,21.54" style="fill:none;stroke:#fff;stroke-linecap:round;stroke-linejoin:round"></path><path d="M336.81,132.36c1,2.49,4.34,2.57,6.69,3.2" style="fill:none;stroke:#fff;stroke-linecap:round;stroke-linejoin:round"></path><path d="M316,143.43s-13.19,14.63-8.18,50.93" style="fill:none;stroke:#fff;stroke-linecap:round;stroke-linejoin:round"></path><path d="M315.82,221.4q-1-2.86-1.9-5.78" style="fill:none;stroke:#fff;stroke-linecap:round;stroke-linejoin:round"></path><path d="M345.76,260.86c-11.33-7.71-22.33-18.71-26.59-31.22" style="fill:none;stroke:#fff;stroke-linecap:round;stroke-linejoin:round"></path><path d="M388.22,213.8c3.48,13.94,2.06,28.93-6.13,41" style="fill:none;stroke:#fff;stroke-linecap:round;stroke-linejoin:round"></path><path d="M384.29,202.7c.61,1.23,1.14,2.5,1.63,3.79" style="fill:none;stroke:#fff;stroke-linecap:round;stroke-linejoin:round"></path></g><path d="M374.35,212.6c-6,.5-7.07-5.22-3.91-7.2" style="fill:none;stroke:#263238;stroke-linecap:round;stroke-linejoin:round"></path><path d="M376,193.14c.59-3-3.17-8.71-5.86-9.7s-5.42,9.7-5.42,9.7c-.39,2.57.33,4.35,2.44,5.34s0,4.22,0,4.22" style="fill:none;stroke:#263238;stroke-linecap:round;stroke-linejoin:round"></path><path d="M366,189.08s2.45-2.67,4.16,0,5.83,9.4,3.57,11.38" style="fill:none;stroke:#263238;stroke-linecap:round;stroke-linejoin:round"></path><path d="M386.15,223.24a10.82,10.82,0,1,1-13.27-15,1,1,0,0,1,1.27.61,1,1,0,0,1-.62,1.28,8.83,8.83,0,1,0,4.27-.38,12.15,12.15,0,0,0,1.13-1.81,10.8,10.8,0,0,1,7.22,15.25Z" style="fill:#92E3A9;stroke:#263238;stroke-linecap:round;stroke-linejoin:round"></path><path d="M314.87,171.86a4.21,4.21,0,0,0,2.05,3.86" style="fill:none;stroke:#263238;stroke-linecap:round;stroke-linejoin:round"></path><path d="M221.54,255.76c2.17-.89,3,4.56,10.19,8.58,3.23,1.8,3.22,4.54,6.23,9.4,2.75,4.46,0,11.51,0,11.51l-17.33-5.18S215.91,258.07,221.54,255.76Z" style="fill:#fff;stroke:#263238;stroke-linecap:round;stroke-linejoin:round"></path><polygon points="229.45 305.91 229.45 276.68 220.63 253.35 216.4 238.52 202.47 212.63 171.98 223.8 155.03 221.77 180.35 241.09 192.31 243.54 203.7 264.34 213.23 278.94 202.47 304.65 200.33 318.85 208.78 327.07 229.06 334.85 229.45 305.91" style="fill:#fff"></polygon><g style="clip-path:url(#freepik--clip-path-4--inject-31)"><polygon points="229.45 305.91 229.45 276.68 220.63 253.35 216.4 238.52 202.47 212.63 171.98 223.8 155.03 221.77 180.35 241.09 192.31 243.54 203.7 264.34 213.23 278.94 202.47 304.65 200.33 318.85 208.78 327.07 229.06 334.85 229.45 305.91" style="fill:#92E3A9;opacity:0.30000000000000004"></polygon><path d="M229,275.43l-17.73,29.22-2.2,22.53-.28-.11-8.44-8.22,2.14-14.2,10.76-25.71-9.53-14.6-11.39-20.8-12-2.45L155,221.77l16.33,2c5.64,6,16.95,17.62,16.95,17.62l20-1.52-8,2.84,8,24.93Z" style="fill:#92E3A9;opacity:0.4"></path></g><polygon points="229.45 305.91 229.45 276.68 220.63 253.35 216.4 238.52 202.47 212.63 171.98 223.8 155.03 221.77 180.35 241.09 192.31 243.54 203.7 264.34 213.23 278.94 202.47 304.65 200.33 318.85 208.78 327.07 229.06 334.85 229.45 305.91" style="fill:none;stroke:#263238;stroke-linecap:round;stroke-linejoin:round"></polygon><polyline points="171.98 223.8 188.31 241.35 212.57 239.51" style="fill:none;stroke:#263238;stroke-linecap:round;stroke-linejoin:round"></polyline><line x1="196.31" y1="242.67" x2="203.7" y2="264.34" style="fill:none;stroke:#263238;stroke-linecap:round;stroke-linejoin:round"></line><polyline points="208.3 323.9 209.67 305.91 204.26 304.65" style="fill:none;stroke:#263238;stroke-linecap:round;stroke-linejoin:round"></polyline><path d="M230.44,272.59c-3.17,3-15.36-11.18-21.67-19.63-1.14-1.53-1.22-7.4-6.3-6.53-1.8.31.59,8.65.95,10.47.43,2.12.84,3.42.84,3.42-6.82-.85-2.94,10-1.79,14.73,0,0-2.82,2.23.48,10.22,0,0-2.62.68-.48,6.45,1.86,5,17.53,21.28,24.21,22.08l13.22-14.93c0-15.45,1.81-18.82-3.26-27.46" style="fill:#fff;stroke:#263238;stroke-linecap:round;stroke-linejoin:round"></path><path d="M214.12,261.66s-4.19-1.21-5.82.59c-1.46,1.62.89,5.56-2.35,6.62-2.53.83-4.34,2.4-2,8.9.89,2.53-2.09,3.12-1.29,6.49s3.7,3.37,2.25,6.26,2,6.5,2,6.5" style="fill:#fff;stroke:#263238;stroke-linecap:round;stroke-linejoin:round"></path><path d="M204.26,260.32a34.22,34.22,0,0,1,2.29,6.13" style="fill:none;stroke:#263238;stroke-linecap:round;stroke-linejoin:round"></path><path d="M238.48,293.38c1.19,15.43,30.47,41.54,47.08,60.94s24.53,28.23,24.53,28.23S339,344.43,351.72,304c6.79-21.64,19.69-34.79,38.68-31.44,0,0,19.9,9.4,12.52,43.18-3.19,14.6-13.48,17.89-27.16,40.59-27.69,46-53.41,80.22-57.69,77.05-4.63-3.41-19.45-4.74-38.44-25.62s-56.72-97.11-56.72-97.11" style="fill:#fff"></path><g style="clip-path:url(#freepik--clip-path-5--inject-31)"><path d="M402.92,315.78c-3.19,14.6-13.48,17.89-27.16,40.59-27.69,46-53.41,80.22-57.69,77.05-4.63-3.41-19.45-4.74-38.44-25.62-14.88-16.35-44.34-72.23-56.39-95.65,13.39,3,47.73,70.58,61.35,90.59,14.64,21.48,34.58,19.81,34.58,19.81-2.21,3.32-9.56,2.61-9.56,2.61s8.61,2,12.57-1.42,44.7-62.27,57.09-85.29,10.16-38.3,10.73-43.9c.34-3.4,7.28-5.12,12.66-5.94C404.74,295.1,405.51,303.94,402.92,315.78Z" style="fill:#92E3A9;opacity:0.4"></path></g><path d="M238.48,293.38c1.19,15.43,30.47,41.54,47.08,60.94s24.53,28.23,24.53,28.23S339,344.43,351.72,304c6.79-21.64,19.69-34.79,38.68-31.44,0,0,19.9,9.4,12.52,43.18-3.19,14.6-13.48,17.89-27.16,40.59-27.69,46-53.41,80.22-57.69,77.05-4.63-3.41-19.45-4.74-38.44-25.62s-56.72-97.11-56.72-97.11" style="fill:none;stroke:#263238;stroke-linecap:round;stroke-linejoin:round"></path><line x1="306.67" y1="126.14" x2="299.91" y2="108.85" style="fill:none;stroke:#263238;stroke-linecap:round;stroke-linejoin:round"></line><line x1="295.02" y1="133.96" x2="277.45" y2="123.76" style="fill:none;stroke:#263238;stroke-linecap:round;stroke-linejoin:round"></line><line x1="292.9" y1="147.21" x2="277.45" y2="147.21" style="fill:none;stroke:#263238;stroke-linecap:round;stroke-linejoin:round"></line></g></svg>